<?xml version="1.0" encoding="UTF-8" standalone="no"?>
<!-- Created with Inkscape (http://www.inkscape.org/) -->

<svg
   width="210mm"
   height="297mm"
   viewBox="0 0 210 297"
   version="1.1"
   id="svg1"
   xml:space="preserve"
   sodipodi:docname="lava_logo_v2.svg"
   inkscape:version="1.3.2 (091e20ef0f, 2023-11-25)"
   xmlns:inkscape="http://www.inkscape.org/namespaces/inkscape"
   xmlns:sodipodi="http://sodipodi.sourceforge.net/DTD/sodipodi-0.dtd"
   xmlns:xlink="http://www.w3.org/1999/xlink"
   xmlns="http://www.w3.org/2000/svg"
   xmlns:svg="http://www.w3.org/2000/svg"><sodipodi:namedview
     id="namedview1"
     pagecolor="#ffffff"
     bordercolor="#000000"
     borderopacity="0.25"
     inkscape:showpageshadow="2"
     inkscape:pageopacity="0.0"
     inkscape:pagecheckerboard="0"
     inkscape:deskcolor="#d1d1d1"
     inkscape:document-units="mm"
     inkscape:zoom="0.70740935"
     inkscape:cx="343.50691"
     inkscape:cy="584.52719"
     inkscape:window-width="1920"
     inkscape:window-height="1131"
     inkscape:window-x="0"
     inkscape:window-y="0"
     inkscape:window-maximized="1"
     inkscape:current-layer="layer1" /><defs
     id="defs1"><linearGradient
       id="linearGradient1831"
       inkscape:collect="always"><stop
         style="stop-color:#febf01;stop-opacity:1;"
         offset="0"
         id="stop1831" /><stop
         style="stop-color:#febf01;stop-opacity:0;"
         offset="1"
         id="stop1832" /></linearGradient><linearGradient
       id="linearGradient1826"
       inkscape:collect="always"><stop
         style="stop-color:#fdbe01;stop-opacity:1;"
         offset="0"
         id="stop1826" /><stop
         style="stop-color:#fdbe01;stop-opacity:0;"
         offset="1"
         id="stop1827" /></linearGradient><radialGradient
       inkscape:collect="always"
       xlink:href="#linearGradient1826"
       id="radialGradient1827"
       cx="97.47477"
       cy="167.83917"
       fx="97.47477"
       fy="167.83917"
       r="56.420143"
       gradientTransform="matrix(0.77625033,0.13984643,-0.93772704,5.2053297,180.80987,-718.85742)"
       gradientUnits="userSpaceOnUse" /><linearGradient
       inkscape:collect="always"
       xlink:href="#linearGradient1831"
       id="linearGradient1832"
       x1="138.36888"
       y1="4.5707536"
       x2="120.67902"
       y2="153.30983"
       gradientUnits="userSpaceOnUse"
       gradientTransform="translate(6.6085468,10.075629)" /></defs><g
     inkscape:label="svg"
     inkscape:groupmode="layer"
     id="layer1"><path
       d="m 107.55536,89.620128 c -9.80534,19.310242 -23.860694,36.366722 -40.680207,49.974212 -13.398757,13.30663 -22.737615,31.46 -17.23254,50.32819 2.839347,15.55311 14.675932,29.42241 33.987073,36.06499 25.128464,7.33383 53.227314,3.29956 70.409144,-19.91042 8.92181,-11.87824 8.55895,-27.98225 4.71651,-41.67756 -3.85342,-13.43065 -11.26111,-24.42937 -18.88671,-35.95749 -9.59036,-13.5362 -24.05356,-27.80233 -32.31327,-38.821922 z"
       style="display:inline;opacity:1;fill:#fe8b00;fill-opacity:1;stroke-width:0.264583"
       id="path1820"
       inkscape:label="orange" /><path
       style="display:inline;opacity:1;fill:url(#radialGradient1827);fill-opacity:1;stroke-width:0.264583"
       d="m 108.00962,110.50824 c 8.67464,10.66436 10.14181,23.24748 17.09031,37.78899 7.77044,12.09127 13.0467,19.13211 24.15621,24.18906 6.05232,2.77475 14.37182,8.45019 12.03529,16.59419 -3.00457,13.77226 -10.90344,25.02516 -22.99004,32.36054 -17.82308,11.91687 -58.623782,11.62222 -77.728052,-9.67135 -9.71771,-10.96252 -15.15024,-27.33711 -9.31181,-41.41696 7.42793,8.60988 22.39564,11.701 31.12809,3.32334 7.16167,-9.59893 5.42553,-21.88252 12.30195,-31.68342 5.493502,-9.51875 13.609272,-20.00071 13.318052,-31.48439 z"
       id="path1806"
       sodipodi:nodetypes="cccccccccc"
       inkscape:label="yellow_left" /><path
       style="opacity:1;fill:url(#linearGradient1832);fill-opacity:1;stroke-width:0.264583"
       d="m 135.20533,122.44182 c 0.9782,16.32887 -3.69855,33.64084 -15.91985,45.07367 -8.41176,9.52621 -12.52103,23.95104 -5.09894,35.24939 5.03913,9.72905 16.06204,19.65051 27.70194,16.74444 10.12026,-4.65937 15.33418,-15.89349 18.81698,-25.88617 5.02714,-16.9252 -0.97083,-34.43113 -9.41086,-49.14301 -4.41309,-7.98004 -9.81361,-15.41943 -16.08927,-22.03832 z"
       id="path1829"
       inkscape:label="yellow_rigth" /><path
       d="m 99.240619,61.753612 c 7.043581,20.407278 -6.912163,33.873982 -19.346106,46.882928 -6.341949,5.50673 -13.902358,11.61045 -20.957377,18.56321 0.494602,2.63335 1.128652,5.73606 -1.904277,6.83834 -1.501869,0.54584 -2.788482,0.0718 -3.815787,-0.83509 -8.855098,9.93826 -15.955718,21.52343 -17.164844,35.41179 -6.017888,25.9253 10.956367,53.20864 34.901229,63.11863 31.798743,14.44892 74.102313,6.51814 95.195223,-22.31492 12.78252,-19.04124 10.29189,-44.31468 1.29088,-64.37488 -3.67097,-7.79202 -7.07823,-12.48457 -12.79405,-21.55011 -1.41869,2.45633 -4.18099,5.71656 -6.78202,3.36724 -2.67078,-2.41233 0.35406,-8.00926 0.7643,-10.88512 0.005,-0.0318 0.004,-0.0663 0.008,-0.0982 -6.49236,-6.17321 -13.70162,-8.95389 -17.6506,-10.03453 0.37438,-21.853916 -17.04974,-37.760292 -31.744321,-44.089298 z m 8.314741,27.866516 c 8.25971,11.019592 22.72291,25.285722 32.31327,38.821922 7.6256,11.52812 15.03329,22.52684 18.88671,35.95749 3.84244,13.69531 4.2053,29.79932 -4.71651,41.67756 C 136.857,229.28708 108.75815,233.32135 83.629686,225.98752 64.318545,219.34494 52.48196,205.47564 49.642613,189.92253 44.137538,171.05434 53.476396,152.90097 66.875153,139.59434 83.694666,125.98685 97.75002,108.93037 107.55536,89.620128 Z"
       style="display:inline;opacity:1;fill:#fe2804;stroke-width:0.264583"
       id="path1819"
       inkscape:label="red" /><path
       d="m 93.535541,46.494595 c 1.388626,5.526084 2.927981,10.803191 2.399337,16.573665 -1.225993,13.382437 -11.860713,25.401911 -21.047811,34.336922 -4.031605,3.920988 -9.22235,7.425698 -12.239047,12.231808 -2.876587,4.58289 -4.56127,10.49829 -3.99097,15.90033 0.05288,0.50086 0.171987,1.08689 0.280086,1.66243 7.055026,-6.95276 14.615422,-13.05647 20.957377,-18.56321 12.433955,-13.008959 26.389697,-26.475629 19.346106,-46.882928 14.694591,6.329013 32.118701,22.23536 31.744321,44.089298 3.94904,1.08066 11.15868,3.86112 17.65112,10.03453 0.9841,-7.11452 -1.19584,-16.023024 -3.15692,-22.849768 C 138.74919,69.599865 115.83333,53.536798 93.535541,46.494595 Z"
       style="display:inline"
       id="path1815"
       inkscape:label="black_top" /><path
       d="m 154.64551,123.49351 c 5.71583,9.06555 9.12308,13.75808 12.79405,21.55011 9.00102,20.06022 11.49165,45.33362 -1.29088,64.37488 -21.09293,28.83309 -63.39645,36.76386 -95.195223,22.31492 -23.944886,-9.91 -39.654662,-36.93194 -34.901229,-63.11863 2.489878,-13.71675 8.309738,-25.47352 17.164844,-35.41179 -0.960796,-0.84817 -1.695031,-2.07386 -2.147156,-3.22616 -2.094998,-5.33941 -0.785837,-11.35222 1.031461,-16.55093 -6.850643,4.43377 -12.246407,11.78117 -16.754532,18.48569 -19.9422,29.65814 -18.861017,69.19194 7.251237,94.8893 31.862488,31.35624 92.025498,31.62984 124.237378,0.66715 9.96052,-9.57428 17.3074,-22.02919 20.0732,-35.63659 2.92145,-14.37323 1.5357,-29.47591 -3.08199,-43.34619 -5.55037,-16.67185 -15.31345,-34.64374 -29.09693,-45.89591 2.43567,6.48948 3.55954,13.18107 0.57361,19.7528 -0.1471,0.32376 -0.4292,0.75547 -0.65784,1.15135 z"
       style="display:inline"
       id="path1818"
       inkscape:label="black_bottom"
       sodipodi:nodetypes="ccccscsccsssscsc" /><circle
       style="opacity:1;fill:#000000;fill-opacity:1;stroke-width:0.269281"
       id="path1833"
       cx="73.743469"
       cy="179.80934"
       r="18.967497"
       inkscape:label="eye_left" /><circle
       style="opacity:1;fill:#ffffff;fill-opacity:1;stroke-width:0.264583"
       id="path1832"
       cx="69.789101"
       cy="171.80231"
       r="7.4832683"
       inkscape:label="eye_left_circle_big" /><circle
       style="opacity:1;fill:#ffffff;fill-opacity:1;stroke-width:0.0677858"
       id="path1832-7-2-9"
       cx="80.398842"
       cy="178.61877"
       r="1.9172043"
       inkscape:label="eye_left_circle_small" /><circle
       style="opacity:1;fill:#000000;fill-opacity:1;stroke-width:0.269281"
       id="path1833-9"
       cx="134.85889"
       cy="179.88225"
       r="18.967497"
       inkscape:label="eye_right" /><circle
       style="opacity:1;fill:#ffffff;fill-opacity:1;stroke-width:0.264583"
       id="path1832-7"
       cx="129.41193"
       cy="171.97926"
       r="7.4832683"
       inkscape:label="eye_right_circle_big" /><circle
       style="opacity:1;fill:#ffffff;fill-opacity:1;stroke-width:0.0677858"
       id="path1832-7-2"
       cx="140.81439"
       cy="178.03131"
       r="1.9172043"
       inkscape:label="eye_right_circle_small" /><path
       style="opacity:1;fill:#000000;fill-opacity:1;stroke-width:0.264583"
       d="m 92.998089,192.51795 c -1.106388,2.03215 -0.008,4.56332 1.446755,6.23666 1.821639,2.09531 4.32144,3.63413 7.090266,4.05013 2.80099,0.42083 5.74445,0.21098 8.37904,-0.81604 3.15116,-1.22839 6.25331,-3.50951 7.31091,-6.79302 0.79512,-2.46857 -2.5216,-5.14621 -4.8514,-3.91478 -2.27627,1.20313 -3.71789,3.67647 -6.19446,4.55986 -1.02497,0.36561 -2.17862,0.44942 -3.23842,0.22424 -2.87701,-0.61129 -4.20511,-3.86338 -7.010078,-4.64787 -1.086565,-0.30389 -2.421142,0.16138 -2.932613,1.10082 z"
       id="path1834"
       inkscape:label="mouth"
       sodipodi:nodetypes="ssssssssss" /></g></svg>
